<?xml version="1.0" encoding="UTF-8"?>
<svg width="62px" height="62px" viewBox="0 0 62 62" version="1.1" xmlns="http://www.w3.org/2000/svg" xmlns:xlink="http://www.w3.org/1999/xlink">
    <!-- Generator: Sketch 42 (36781) - http://www.bohemiancoding.com/sketch -->
    <title>gift 3</title>
    <desc>Created with Sketch.</desc>
    <defs></defs>
    <g id="GRAFIKA" stroke="none" stroke-width="1" fill="none" fill-rule="evenodd">
        <g id="szkolawformie" transform="translate(-1198.000000, -719.000000)" stroke-width="1.5" stroke="#2D5898">
            <g id="promo-wydarzenia">
                <g id="Group-3" transform="translate(71.000000, 689.000000)">
                    <g id="gift-3" transform="translate(1128.000000, 31.000000)">
                        <path d="M3.18829602,13.2548476 L56.2559943,13.2548476 C58.0082562,13.2548476 59.5508456,14.7115591 59.4403932,16.4854425 L58.908724,24.8876479 C58.7982716,26.6577328 57.4747149,28.1163435 55.7261972,28.1163435 L3.71996521,28.1163435 C1.96957547,28.1163435 0.647890809,26.659632 0.535566333,24.8876479 L0.00576922527,16.4854425 C-0.10655525,14.7115591 1.43790628,13.2548476 3.18829602,13.2548476 Z M6.50513298,28.1163435 L52.939369,28.1163435 C54.4725981,28.1163435 55.8223639,29.573055 55.725718,31.3469383 L55.2605075,56.4683266 C55.1638616,58.2384115 54.0057495,59.6970222 52.4757965,59.6970222 L6.97034352,59.6970222 C5.43875249,59.6970222 4.28227842,58.2403107 4.1839945,56.4683266 L3.72042203,31.3469383 C3.62213812,29.573055 4.97354196,28.1163435 6.50513298,28.1163435 Z" id="Stroke-17"></path>
                        <path d="M29.7229917,13.5058864 L29.7229917,59.6970222 L29.7229917,13.5058864 Z M29.3839492,12.9081727 C15.6284796,-17.137214 -11.668877,14.9643094 29.3839492,12.9081727 C61.4026057,12.111508 41.2021871,-9.17410019 30.5268035,9.41768622 C30.197062,9.99001294 29.6275083,12.2457575 29.3839492,12.9081727 Z" id="Stroke-18" stroke-linecap="round" stroke-linejoin="round"></path>
                    </g>
                </g>
            </g>
        </g>
    </g>
</svg>