<?xml version="1.0" encoding="UTF-8"?>
<svg width="60px" height="60px" viewBox="0 0 60 60" version="1.1" xmlns="http://www.w3.org/2000/svg" xmlns:xlink="http://www.w3.org/1999/xlink">
    <!-- Generator: Sketch 42 (36781) - http://www.bohemiancoding.com/sketch -->
    <title>pilka 3</title>
    <desc>Created with Sketch.</desc>
    <defs></defs>
    <g id="GRAFIKA" stroke="none" stroke-width="1" fill="none" fill-rule="evenodd">
        <g id="szkolawformie" transform="translate(-528.000000, -721.000000)" fill="#2D5898">
            <g id="promo-wydarzenia">
                <g id="Group-3" transform="translate(71.000000, 689.000000)">
                    <path d="M501.991985,36.0272641 C505.381477,37.9827404 508.389902,40.6000701 510.80667,43.7488883 C513.133185,46.7773695 514.918184,50.3172829 515.971133,54.2382635 C517.014053,58.1391879 517.244699,62.0802247 516.753323,65.8608121 C516.753323,65.9009244 516.743295,65.9310087 516.733267,65.971121 C516.211807,69.8820735 514.918184,73.6225486 512.972736,76.9919846 C511.01726,80.3814768 508.409958,83.3899018 505.251112,85.8066699 C502.222631,88.1331852 498.702773,89.9181841 494.791821,90.9611047 L494.751708,90.9711328 C490.830728,92.0240816 486.879663,92.2446994 483.099076,91.7432952 C479.158039,91.231863 475.387479,89.9282121 472.008015,87.9727359 C468.618523,86.0172596 465.610098,83.409958 463.19333,80.2511117 C460.866815,77.2226305 459.081816,73.6827171 458.028867,69.7617365 C456.975918,65.8407559 456.755301,61.8896911 457.256705,58.0990756 C457.467295,56.4845542 457.808249,54.8900889 458.279569,53.3457641 C458.289597,53.3257079 458.289597,53.2956236 458.299625,53.2655394 C458.971507,51.0794172 459.884063,48.9735197 461.027264,46.9979873 L461.04732,46.967903 C463.002797,43.588439 465.610098,40.6000701 468.748888,38.183302 C469.982343,37.2406622 471.30605,36.378247 472.699953,35.6261408 C472.720009,35.6161127 472.740065,35.5960565 472.760122,35.5960565 C474.775766,34.5130235 476.941832,33.6405803 479.238263,33.0288672 C483.159244,31.9759184 487.110309,31.7553006 490.900924,32.2567048 C491.803452,32.3770418 492.705979,32.5374911 493.588451,32.7380528 C493.628563,32.7380528 493.658647,32.7480809 493.688732,32.7581089 C496.616932,33.4299905 499.414767,34.5330797 501.991985,36.0272641 Z M466.973918,75.9992044 L473.151217,72.4994033 L473.572396,60.9871636 L467.555546,53.5362976 L461.528668,56.9959864 L460.164849,67.9767377 L466.973918,75.9992044 Z M473.833127,73.7729699 L467.766136,77.2126025 L472.29883,86.3281302 L482.226632,86.3882987 L483.229441,79.7797918 L473.833127,73.7729699 Z M473.873239,42.7360519 L472.589644,37.340943 C471.556752,37.9526561 470.563971,38.6145096 469.621332,39.3365316 C466.632963,41.6329627 464.156026,44.4809384 462.290803,47.679897 L462.270746,47.7200093 C461.237854,49.5250643 460.395495,51.4304001 459.763726,53.4159606 L461.107489,55.5719986 L467.22462,52.0521413 L473.873239,42.7360519 Z M473.903323,36.618921 L475.247086,42.2547039 L484.623344,43.708776 L494.180108,39.4869529 L492.886485,34.0517317 C492.164463,33.9013104 491.442441,33.7809734 490.720419,33.6806926 C487.110309,33.2093727 483.349778,33.4199624 479.609303,34.4227708 C477.593658,34.9642873 475.688322,35.7063654 473.903323,36.618921 Z M484.031687,45.0826234 L474.976328,43.6686636 L468.628551,52.5736016 L474.484952,59.8239059 L484.402726,54.5691902 L484.031687,45.0826234 Z M482.748093,87.8323427 L474.735654,87.7822023 C477.413152,89.0557689 480.30124,89.9181841 483.279581,90.3193074 C485.967107,90.6702903 488.72483,90.6402061 491.512638,90.1889423 L482.748093,87.8323427 Z M469.992371,84.9342266 L466.201755,77.3229114 L459.402715,69.3205008 L459.422771,69.3906974 C460.425579,73.1211444 462.120325,76.4905804 464.336532,79.3786685 C465.961081,81.494594 467.876445,83.3598175 469.992371,84.9342266 Z M458.85117,66.7833958 L460.114709,56.705172 L459.242265,55.3012403 C459.001591,56.2839925 458.811058,57.2767727 458.680693,58.2795811 C458.319682,61.0573602 458.359794,63.9153639 458.85117,66.7833958 Z M485.104692,55.8227007 L475.006412,61.1877252 L474.585233,72.5495437 L484.051743,78.596478 L494.420782,73.2815938 L495.082635,62.0501404 L485.104692,55.8227007 Z M494.942242,40.7304352 L485.465703,44.922174 L485.836742,54.5792183 L495.904938,60.8467704 L504.52909,57.2868008 L504.559174,47.3790545 L494.942242,40.7304352 Z M494.460894,34.4327989 L495.654236,39.4769248 L505.391505,46.2057687 L509.783805,44.7817809 L509.663468,44.6213315 C507.367037,41.6229346 504.499005,39.1359699 501.279991,37.2707464 C499.144009,36.0372922 496.847578,35.0846243 494.460894,34.4327989 Z M510.666277,46.0152351 L505.99319,47.5194476 L505.973134,57.5876433 L510.716417,66.2318512 L515.379476,65.2190148 C515.770571,61.7693541 515.529897,58.1793002 514.577229,54.6093026 C513.73487,51.4604844 512.391107,48.5723964 510.666277,46.0152351 Z M509.503019,67.0240698 L504.930213,58.6807044 L496.526679,62.1504213 L495.864826,73.2214253 L503.937433,75.8086708 L509.503019,67.0240698 Z M503.335748,84.5431314 L498.722829,88.0329044 C500.618137,87.1905454 502.38308,86.1375966 504.007629,84.9442547 L503.335748,84.5431314 Z M503.456085,77.1724901 L495.172888,74.5050199 L484.673485,79.9001288 L483.660648,86.5788323 L494.420782,89.4869765 L502.603698,83.2795929 L503.456085,77.1724901 Z M515.158858,66.7432834 L510.786614,67.6959513 L504.950269,76.921788 L504.05777,83.299649 L505.231056,83.9815587 C507.848385,81.8054646 510.044536,79.1881349 511.729254,76.2699626 C513.413972,73.3517904 514.587257,70.1227475 515.158858,66.7432834 L515.158858,66.7432834 Z" id="pilka-3"></path>
                </g>
            </g>
        </g>
    </g>
</svg>