<?xml version="1.0" encoding="UTF-8"?>
<svg width="71px" height="60px" viewBox="0 0 71 60" version="1.1" xmlns="http://www.w3.org/2000/svg" xmlns:xlink="http://www.w3.org/1999/xlink">
    <!-- Generator: Sketch 42 (36781) - http://www.bohemiancoding.com/sketch -->
    <title>konfa 3</title>
    <desc>Created with Sketch.</desc>
    <defs></defs>
    <g id="GRAFIKA" stroke="none" stroke-width="1" fill="none" fill-rule="evenodd">
        <g id="szkolawformie" transform="translate(-857.000000, -711.000000)" fill="#2D5898">
            <g id="promo-wydarzenia">
                <g id="Group-3" transform="translate(71.000000, 689.000000)">
                    <path d="M838.482376,53.2169317 C840.793127,53.2169317 842.874982,54.1434119 844.37915,55.6584795 C845.894218,57.1626473 846.820698,59.2445027 846.820698,61.5443535 C846.820698,61.8713465 846.809798,62.1874397 846.766199,62.5035329 L851.692894,71.0380502 L851.758292,71.0380502 C852.619374,71.0380502 853.404157,70.6892577 853.970945,70.1224698 C854.548633,69.5447822 854.897425,68.759999 854.897425,67.8989174 L854.897425,26.7086992 C854.897425,25.8476176 854.548633,25.0628344 853.981845,24.4851468 L853.970945,24.4851468 C853.404157,23.9183589 852.619374,23.5695664 851.758292,23.5695664 L790.719599,23.5695664 C789.847618,23.5695664 789.062834,23.9183589 788.496047,24.4851468 C787.929259,25.0628344 787.569566,25.8476176 787.569566,26.7086992 L787.569566,67.8989174 C787.569566,68.759999 787.918359,69.5447822 788.496047,70.1224698 C789.062834,70.6892577 789.847618,71.0380502 790.719599,71.0380502 L825.271859,71.0380502 L830.198554,62.5035329 C830.165855,62.1874397 830.144055,61.8713465 830.144055,61.5443535 C830.144055,59.2445027 831.081435,57.1626473 832.596502,55.6584795 C834.10067,54.1434119 836.182526,53.2169317 838.482376,53.2169317 Z M852.564875,72.542218 L854.472334,75.8448473 C854.570432,76.0083438 854.624931,76.2154394 854.581332,76.422535 C854.494134,76.8476259 854.079943,77.12012 853.654852,77.0329219 L847.845276,75.8230478 L845.992316,81.4582272 C845.937817,81.6326234 845.817919,81.7961199 845.643523,81.8942178 C845.262031,82.1122132 844.782442,81.981416 844.564446,81.6108239 L838.482376,71.0707495 L832.411206,81.6108239 C832.182311,81.981416 831.702722,82.1122132 831.33213,81.8942178 C831.157733,81.7961199 831.037836,81.6326234 830.983337,81.4582272 L829.130377,75.8230478 L823.320801,77.0329219 C822.89571,77.12012 822.481519,76.8476259 822.394321,76.422535 C822.350722,76.2263392 822.383421,76.0301434 822.481519,75.8775466 L824.367179,72.6076166 L790.719599,72.6076166 C789.422527,72.6076166 788.245352,72.0844278 787.38427,71.2233463 L787.373371,71.2124465 C786.523189,70.3622647 786,69.1850899 786,67.8989174 L786,26.7086992 C786,25.411627 786.534089,24.2344522 787.38427,23.3733706 C788.234452,22.5231888 789.411627,22 790.719599,22 L851.758292,22 C853.055365,22 854.232539,22.5231888 855.082721,23.3733706 L855.082721,23.3842704 C855.943803,24.2344522 856.466991,25.411627 856.466991,26.7086992 L856.466991,67.8989174 C856.466991,69.1959897 855.943803,70.3731645 855.082721,71.2233463 C854.417835,71.8991318 853.545854,72.3678218 852.564875,72.542218 Z M826.427235,72.171626 L830.754442,64.6834863 C831.179533,65.7189641 831.811719,66.6672438 832.596502,67.4411272 C833.66468,68.5202041 835.03805,69.3049873 836.564018,69.6646796 L836.607617,69.6755794 L836.640316,69.6864792 C836.738414,69.7082787 836.836512,69.7300782 836.93461,69.740978 L837.010908,69.7518778 L837.021808,69.7627775 L837.087206,69.7736773 L837.174404,69.7845771 L837.218004,69.7954768 L837.250703,69.7954768 L837.316101,69.8063766 L837.327001,69.8063766 L837.4033,69.8172764 L831.920717,79.3000734 L830.405649,74.6676725 C830.274852,74.2752809 829.860661,74.0463858 829.468269,74.1444837 L824.715971,75.1363625 L826.372736,72.2697239 C826.394535,72.2261248 826.416335,72.2043253 826.427235,72.171626 Z M850.613817,72.2806236 L852.259682,75.1363625 L847.507383,74.1444837 C847.104092,74.0463858 846.700801,74.2752809 846.570003,74.6676725 L845.054936,79.3000734 L839.572353,69.8172764 C841.436213,69.5774815 843.114777,68.7163999 844.37915,67.4411272 C845.163933,66.6672438 845.79612,65.7189641 846.221211,64.6725865 L850.526619,72.1498264 C850.548418,72.1934255 850.581117,72.2370246 850.613817,72.2806236 Z M835.05985,41.9247735 C835.484941,41.9247735 835.844633,42.2844658 835.844633,42.7204564 C835.844633,43.1564471 835.484941,43.5052396 835.05985,43.5052396 L807.418041,43.5052396 C806.982051,43.5052396 806.633258,43.1564471 806.633258,42.7204564 C806.633258,42.2844658 806.982051,41.9247735 807.418041,41.9247735 L835.05985,41.9247735 Z M799.493911,34.7745265 C799.06882,34.7745265 798.709128,34.4148342 798.709128,33.9897433 C798.709128,33.5537527 799.06882,33.1940604 799.493911,33.1940604 L842.97308,33.1940604 C843.398171,33.1940604 843.757864,33.5537527 843.757864,33.9897433 C843.757864,34.4148342 843.398171,34.7745265 842.97308,34.7745265 L799.493911,34.7745265 Z M821.238946,53.2387313 C821.664037,53.2387313 822.023729,53.5984236 822.023729,54.0344142 C822.023729,54.4595051 821.664037,54.8191974 821.238946,54.8191974 L799.493911,54.8191974 C799.06882,54.8191974 798.709128,54.4595051 798.709128,54.0344142 C798.709128,53.5984236 799.06882,53.2387313 799.493911,53.2387313 L821.238946,53.2387313 Z M799.493911,61.4026565 C799.06882,61.4026565 798.709128,61.053864 798.709128,60.6178733 C798.709128,60.1818826 799.06882,59.8330901 799.493911,59.8330901 L821.238946,59.8330901 C821.664037,59.8330901 822.023729,60.1818826 822.023729,60.6178733 C822.023729,61.053864 821.664037,61.4026565 821.238946,61.4026565 L799.493911,61.4026565 Z M843.267374,56.7702557 C844.488148,57.9910295 845.251132,59.6804934 845.251132,61.5443535 C845.251132,63.4191133 844.488148,65.1085772 843.267374,66.329351 C842.319094,67.2885305 841.065621,67.964316 839.681351,68.2150107 L839.648652,68.2150107 L839.605052,68.2259104 L839.572353,68.2259104 L839.517854,68.2368102 L839.496055,68.2368102 L839.430656,68.24771 L839.419756,68.24771 L839.354358,68.2695095 L839.26716,68.2695095 L839.190861,68.2804093 L839.179962,68.2804093 L839.114563,68.291309 L839.092763,68.291309 L839.038265,68.291309 L838.951066,68.3022088 L838.831169,68.3022088 L838.79847,68.3022088 L838.743971,68.3131086 L838.220782,68.3131086 L838.166283,68.3022088 L838.057286,68.3022088 L837.937388,68.291309 L837.882889,68.291309 L837.86109,68.291309 L837.795691,68.2804093 L837.784791,68.2804093 L837.708493,68.2695095 L837.632195,68.2695095 L837.621295,68.2695095 L837.555896,68.24771 L837.544997,68.24771 L837.479598,68.2368102 L837.457798,68.2368102 L837.4033,68.2259104 L837.3706,68.2259104 L837.327001,68.2150107 L837.283402,68.2150107 C835.899132,67.964316 834.656558,67.2885305 833.697379,66.329351 C832.476605,65.1085772 831.724521,63.4191133 831.724521,61.5443535 C831.724521,59.6804934 832.476605,57.9910295 833.697379,56.7702557 C834.929053,55.5494818 836.618516,54.7864981 838.482376,54.7864981 C840.357136,54.7864981 842.0466,55.5494818 843.267374,56.7702557 L843.267374,56.7702557 Z" id="konfa-3"></path>
                </g>
            </g>
        </g>
    </g>
</svg>