<?xml version="1.0" encoding="UTF-8"?>
<svg width="25px" height="17px" viewBox="0 0 25 17" version="1.1" xmlns="http://www.w3.org/2000/svg" xmlns:xlink="http://www.w3.org/1999/xlink">
    <!-- Generator: Sketch 42 (36781) - http://www.bohemiancoding.com/sketch -->
    <title>Fill 591 Copy</title>
    <desc>Created with Sketch.</desc>
    <defs></defs>
    <g id="GRAFIKA" stroke="none" stroke-width="1" fill="none" fill-rule="evenodd">
        <g id="zapisz-się" transform="translate(-399.000000, -2062.000000)" stroke="#FFDA1A" fill="#FFDA1A">
            <g id="stopka" transform="translate(0.000000, 1914.000000)">
                <path d="M422.467719,162.604735 L415.778336,157.550933 L411.657102,160.664275 C411.567432,160.736011 411.438307,160.739598 411.341463,160.667862 L407.216643,157.550933 L400.530846,162.604735 C400.563128,162.827116 400.667145,163.027977 400.817791,163.178623 L400.821377,163.178623 C401.007891,163.365136 401.266141,163.479914 401.549498,163.479914 L421.445481,163.479914 C421.728838,163.479914 421.987088,163.365136 422.173601,163.178623 C422.327834,163.027977 422.431851,162.827116 422.467719,162.604735 Z M415.620516,157.020086 L411.499283,160.137016 L407.378049,157.023673 L407.367288,157.016499 L400.516499,151.837159 L400.516499,150.553085 C400.516499,150.266141 400.631277,150.007891 400.821377,149.821377 C401.007891,149.634864 401.266141,149.516499 401.549498,149.516499 L421.445481,149.516499 C421.728838,149.516499 421.987088,149.631277 422.173601,149.821377 C422.363702,150.007891 422.478479,150.266141 422.478479,150.553085 L422.478479,151.837159 L415.62769,157.016499 L415.620516,157.020086 Z M416.205165,157.224534 L422.478479,152.482783 L422.478479,161.966284 L416.205165,157.224534 Z M400.516499,152.482783 L406.789813,157.224534 L400.516499,161.966284 L400.516499,152.482783 Z M401.549498,149 L421.445481,149 C421.87231,149 422.259684,149.175753 422.539455,149.455524 L422.543042,149.455524 C422.822812,149.735294 422.994978,150.126255 422.994978,150.553085 L422.994978,162.446915 C422.994978,162.873745 422.822812,163.261119 422.543042,163.544476 C422.259684,163.824247 421.87231,164 421.445481,164 L401.549498,164 C401.126255,164 400.738881,163.824247 400.45911,163.544476 L400.455524,163.544476 C400.172166,163.261119 400,162.873745 400,162.446915 L400,150.553085 C400,150.122669 400.172166,149.735294 400.455524,149.455524 C400.735294,149.175753 401.122669,149 401.549498,149 L401.549498,149 Z" id="Fill-591-Copy"></path>
            </g>
        </g>
    </g>
</svg>