<?xml version="1.0" encoding="UTF-8"?>
<svg width="24px" height="24px" viewBox="0 0 24 24" version="1.1" xmlns="http://www.w3.org/2000/svg" xmlns:xlink="http://www.w3.org/1999/xlink">
    <!-- Generator: Sketch 42 (36781) - http://www.bohemiancoding.com/sketch -->
    <title>Fill 686</title>
    <desc>Created with Sketch.</desc>
    <defs></defs>
    <g id="GRAFIKA" stroke="none" stroke-width="1" fill="none" fill-rule="evenodd">
        <g id="strona-główna-" transform="translate(-202.000000, -1846.000000)" stroke-width="0.5" stroke="#FFDA1A" fill="#FFDA1A">
            <g id="Polecane-wydarzenia" transform="translate(-20.000000, 693.000000)">
                <g id="EVENTY">
                    <g id="7" transform="translate(90.000000, 887.000000)">
                        <path d="M133.285921,274.044765 L140.040794,274.044765 L140.040794,267.285921 C140.040794,267.127076 140.171841,267 140.330686,267 L147.665343,267 C147.824188,267 147.955235,267.127076 147.955235,267.285921 L147.955235,274.044765 L154.710108,274.044765 C154.868953,274.044765 155,274.171841 155,274.330686 L155,281.669314 C155,281.828159 154.868953,281.955235 154.710108,281.955235 L147.955235,281.955235 L147.955235,288.714079 C147.955235,288.872924 147.824188,289 147.665343,289 L140.330686,289 C140.171841,289 140.040794,288.872924 140.040794,288.714079 L140.040794,281.955235 L133.285921,281.955235 C133.127076,281.955235 133,281.828159 133,281.669314 L133,274.330686 C133,274.171841 133.127076,274.044765 133.285921,274.044765 Z M140.330686,274.616606 L133.571841,274.616606 L133.571841,281.383394 L140.330686,281.383394 C140.489531,281.383394 140.616606,281.510469 140.616606,281.669314 L140.616606,288.428159 L147.379422,288.428159 L147.379422,281.669314 C147.379422,281.510469 147.510469,281.383394 147.665343,281.383394 L154.424188,281.383394 L154.424188,274.616606 L147.665343,274.616606 C147.510469,274.616606 147.379422,274.489531 147.379422,274.330686 L147.379422,267.571841 L140.616606,267.571841 L140.616606,274.330686 C140.616606,274.489531 140.489531,274.616606 140.330686,274.616606 L140.330686,274.616606 Z" id="Fill-686" transform="translate(144.000000, 278.000000) scale(1, -1) translate(-144.000000, -278.000000) "></path>
                    </g>
                </g>
            </g>
        </g>
    </g>
</svg>