<?xml version="1.0" encoding="UTF-8"?>
<svg width="30px" height="22px" viewBox="0 0 30 22" version="1.1" xmlns="http://www.w3.org/2000/svg" xmlns:xlink="http://www.w3.org/1999/xlink">
    <!-- Generator: Sketch 42 (36781) - http://www.bohemiancoding.com/sketch -->
    <title>Fill 733 Copy</title>
    <desc>Created with Sketch.</desc>
    <defs></defs>
    <g id="GRAFIKA" stroke="none" stroke-width="1" fill="none" fill-rule="evenodd">
        <g id="kalendarz" transform="translate(-1189.000000, -1147.000000)" stroke="#FFDA1A" stroke-width="0.5" fill="#FFDA1A">
            <g id="ZNAJDŹ-WYDARZENIE" transform="translate(-20.000000, 100.000000)">
                <g id="EVENTY" transform="translate(0.000000, 224.000000)">
                    <g id="1" transform="translate(1080.000000, 556.000000)">
                        <path d="M138.110975,268.587515 L137.029784,268.587515 C136.707466,268.587515 136.413709,268.718074 136.19747,268.930233 L136.19747,268.934313 C135.985312,269.146471 135.854753,269.440228 135.854753,269.766626 L135.854753,286.237454 C135.854753,286.559772 135.985312,286.853529 136.19747,287.065687 C136.413709,287.281926 136.707466,287.412485 137.029784,287.412485 L138.110975,287.412485 C138.437373,287.412485 138.73113,287.281926 138.943288,287.069767 L138.947368,287.065687 C139.159527,286.853529 139.290086,286.559772 139.290086,286.237454 L139.290086,269.766626 C139.290086,269.440228 139.159527,269.146471 138.943288,268.934313 C138.73113,268.722154 138.437373,268.587515 138.110975,268.587515 Z M134.088127,271.859649 L133.512852,271.859649 C133.186455,271.859649 132.892697,271.990208 132.680539,272.202366 L132.676459,272.202366 C132.46838,272.414525 132.333741,272.708282 132.333741,273.03468 L132.333741,282.96532 C132.333741,283.291718 132.46838,283.585475 132.680539,283.797634 C132.892697,284.009792 133.186455,284.144431 133.512852,284.144431 L134.088127,284.144431 C134.410445,284.144431 134.708282,284.009792 134.920441,283.797634 C135.132599,283.585475 135.267238,283.291718 135.267238,282.96532 L135.267238,273.03468 C135.267238,272.712362 135.132599,272.414525 134.920441,272.202366 C134.708282,271.990208 134.410445,271.859649 134.088127,271.859649 Z M133.512852,271.268054 L134.088127,271.268054 C134.541004,271.268054 134.95308,271.439412 135.267238,271.72093 L135.267238,269.766626 C135.267238,269.28111 135.463076,268.840473 135.781314,268.522236 L135.785394,268.518156 C136.103631,268.195838 136.544268,268 137.029784,268 L138.110975,268 C138.600571,268 139.041208,268.195838 139.359445,268.518156 C139.681763,268.836393 139.877601,269.27703 139.877601,269.766626 L139.877601,275.054264 L148.257854,275.054264 L148.257854,269.766626 C148.257854,269.28111 148.453692,268.836393 148.77193,268.518156 L148.77601,268.518156 L148.78009,268.514076 C149.098327,268.195838 149.538964,268 150.0204,268 L151.105671,268 C151.591187,268 152.031824,268.195838 152.354141,268.518156 C152.672379,268.836393 152.872297,269.27703 152.872297,269.766626 L152.872297,271.72093 C153.182375,271.439412 153.594451,271.268054 154.047328,271.268054 L154.622603,271.268054 C155.112199,271.268054 155.552836,271.467972 155.871073,271.78621 C156.18931,272.104447 156.389229,272.549164 156.389229,273.03468 L156.389229,275.53978 L157.107303,275.53978 C157.392901,275.53978 157.645859,275.654019 157.833537,275.841697 C158.021216,276.029376 158.135455,276.286414 158.135455,276.572011 L158.135455,279.427989 C158.135455,279.713586 158.021216,279.970624 157.833537,280.158303 C157.649939,280.341901 157.392901,280.46022 157.107303,280.46022 L156.389229,280.46022 L156.389229,282.96532 C156.389229,283.450836 156.18931,283.891473 155.871073,284.21379 C155.552836,284.532028 155.108119,284.731946 154.622603,284.731946 L154.047328,284.731946 C153.594451,284.731946 153.182375,284.560588 152.872297,284.27907 L152.872297,286.237454 C152.872297,286.72297 152.672379,287.163607 152.354141,287.481844 L152.350061,287.481844 C152.031824,287.804162 151.591187,288 151.105671,288 L150.0204,288 C149.534884,288 149.094247,287.804162 148.77193,287.481844 C148.453692,287.163607 148.257854,286.72297 148.257854,286.237454 L148.257854,281.317013 L139.877601,281.317013 L139.877601,286.237454 C139.877601,286.72297 139.681763,287.163607 139.359445,287.481844 C139.041208,287.804162 138.600571,288 138.110975,288 L137.029784,288 C136.544268,288 136.103631,287.804162 135.785394,287.481844 C135.463076,287.163607 135.267238,286.72297 135.267238,286.237454 L135.267238,284.27907 C134.95308,284.560588 134.541004,284.731946 134.088127,284.731946 L133.512852,284.731946 C133.027336,284.731946 132.582619,284.532028 132.264382,284.21379 C131.946144,283.895553 131.746226,283.450836 131.746226,282.96532 L131.746226,280.46022 L131.028152,280.46022 C130.746634,280.46022 130.485516,280.341901 130.301918,280.158303 L130.301918,280.154223 C130.114239,279.970624 130,279.713586 130,279.427989 L130,276.572011 C130,276.286414 130.114239,276.029376 130.301918,275.845777 L130.301918,275.841697 C130.489596,275.654019 130.746634,275.53978 131.028152,275.53978 L131.746226,275.53978 L131.746226,273.03468 C131.746226,272.549164 131.942064,272.112607 132.264382,271.79029 L132.264382,271.78621 C132.586699,271.467972 133.027336,271.268054 133.512852,271.268054 Z M157.107303,276.127295 L156.389229,276.127295 L156.389229,279.868625 L157.107303,279.868625 C157.229702,279.868625 157.339861,279.819665 157.417381,279.742146 C157.49898,279.660547 157.54794,279.550388 157.54794,279.427989 L157.54794,276.572011 C157.54794,276.449612 157.49898,276.339453 157.417381,276.257854 L157.421461,276.257854 C157.339861,276.180335 157.229702,276.127295 157.107303,276.127295 Z M154.622603,271.859649 L154.047328,271.859649 C153.72093,271.859649 153.427173,271.990208 153.215014,272.202366 C153.002856,272.414525 152.872297,272.708282 152.872297,273.03468 L152.872297,282.96532 C152.872297,283.291718 153.002856,283.585475 153.215014,283.797634 C153.427173,284.009792 153.72093,284.144431 154.047328,284.144431 L154.622603,284.144431 C154.949,284.144431 155.242758,284.009792 155.454916,283.797634 C155.667075,283.585475 155.801714,283.291718 155.801714,282.96532 L155.801714,273.03468 C155.801714,272.712362 155.667075,272.414525 155.454916,272.202366 C155.242758,271.990208 154.949,271.859649 154.622603,271.859649 Z M151.105671,268.587515 L150.0204,268.587515 C149.698082,268.587515 149.404325,268.718074 149.192166,268.930233 L149.188086,268.934313 C148.975928,269.146471 148.845369,269.440228 148.845369,269.766626 L148.845369,286.237454 C148.845369,286.559772 148.975928,286.853529 149.192166,287.065687 C149.404325,287.281926 149.698082,287.412485 150.0204,287.412485 L151.105671,287.412485 C151.427989,287.412485 151.721746,287.281926 151.933905,287.069767 L151.937984,287.065687 C152.150143,286.853529 152.280702,286.559772 152.280702,286.237454 L152.280702,269.766626 C152.280702,269.440228 152.150143,269.146471 151.933905,268.934313 C151.721746,268.722154 151.427989,268.587515 151.105671,268.587515 Z M131.746226,276.127295 L131.028152,276.127295 C130.905753,276.127295 130.795594,276.180335 130.713994,276.257854 C130.636475,276.339453 130.587515,276.449612 130.587515,276.572011 L130.587515,279.427989 C130.587515,279.550388 130.636475,279.660547 130.713994,279.742146 C130.795594,279.819665 130.905753,279.868625 131.028152,279.868625 L131.746226,279.868625 L131.746226,276.127295 Z M140.01632,280.729498 L148.253774,280.729498 L148.253774,275.645859 L140.01632,275.645859 L140.01632,280.729498 Z" id="Fill-733-Copy"></path>
                    </g>
                </g>
            </g>
        </g>
    </g>
</svg>