<?xml version="1.0" encoding="UTF-8"?>
<svg width="27px" height="22px" viewBox="0 0 27 22" version="1.1" xmlns="http://www.w3.org/2000/svg" xmlns:xlink="http://www.w3.org/1999/xlink">
    <!-- Generator: Sketch 42 (36781) - http://www.bohemiancoding.com/sketch -->
    <title>Fill 679</title>
    <desc>Created with Sketch.</desc>
    <defs></defs>
    <g id="GRAFIKA" stroke="none" stroke-width="1" fill="none" fill-rule="evenodd">
        <g id="strona-główna-" transform="translate(-429.000000, -1186.000000)" stroke-width="0.5" stroke="#FFDA1A" fill="#FFDA1A">
            <g id="Polecane-wydarzenia" transform="translate(-20.000000, 693.000000)">
                <g id="EVENTY">
                    <g id="2" transform="translate(420.000000, 225.000000)">
                        <path d="M42.5195442,288.328187 C43.1887495,287.825244 43.9618688,287.284891 44.7931798,286.70713 C48.9164826,283.830794 54.4363878,279.973511 54.4363878,275.891774 C54.4363878,273.401997 53.3265876,271.606365 51.7886622,270.588009 C51.0030733,270.06844 50.1052573,269.748385 49.1825021,269.640315 C48.2597468,269.532244 47.3162088,269.632002 46.4433322,269.96037 C44.7723971,270.579696 43.3508552,272.022021 42.810503,274.358005 C42.773094,274.520111 42.6109884,274.619868 42.4530393,274.582459 C42.3366557,274.55752 42.2493681,274.466075 42.2244287,274.353848 C41.6882331,272.022021 40.2666913,270.579696 38.5915995,269.96037 C37.7187229,269.632002 36.7751849,269.532244 35.8524297,269.640315 C34.933831,269.748385 34.0318585,270.06844 33.2462696,270.588009 C31.7083442,271.606365 30.5985439,273.401997 30.5985439,275.891774 C30.5985439,279.973511 36.1226058,283.830794 40.2417519,286.70713 C41.073063,287.284891 41.8503388,287.825244 42.5195442,288.328187 Z M45.1340174,287.193447 C44.2320449,287.8294 43.3924207,288.411318 42.698276,288.9392 C42.5943622,289.018175 42.4488827,289.022331 42.3366557,288.9392 C41.6466676,288.415474 40.8070434,287.8294 39.9009144,287.193447 C35.6695412,284.242293 30,280.285253 30,275.891774 C30,273.177543 31.2220272,271.211493 32.9179017,270.089223 C33.7824652,269.519775 34.7717253,269.166467 35.7859248,269.045927 C36.8001243,268.925387 37.8351065,269.041771 38.7994273,269.399235 C40.399701,269.993622 41.792147,271.257215 42.5195442,273.239892 C43.2469413,271.257215 44.6393873,269.993622 46.2355045,269.399235 C47.1998253,269.041771 48.2389641,268.925387 49.2531635,269.045927 C50.2632064,269.166467 51.2524666,269.519775 52.1211866,270.093379 C53.8170611,271.211493 55.0349318,273.177543 55.0349318,275.891774 C55.0349318,280.285253 49.3653905,284.242293 45.1340174,287.193447 L45.1340174,287.193447 Z" id="Fill-679"></path>
                    </g>
                </g>
            </g>
        </g>
    </g>
</svg>