<?xml version="1.0" encoding="UTF-8"?>
<svg width="23px" height="22px" viewBox="0 0 23 22" version="1.1" xmlns="http://www.w3.org/2000/svg" xmlns:xlink="http://www.w3.org/1999/xlink">
    <!-- Generator: Sketch 42 (36781) - http://www.bohemiancoding.com/sketch -->
    <title>Fill 596</title>
    <desc>Created with Sketch.</desc>
    <defs></defs>
    <g id="GRAFIKA" stroke="none" stroke-width="1" fill="none" fill-rule="evenodd">
        <g id="strona-główna--wyspa" transform="translate(-103.000000, -1516.000000)" stroke-width="0.5" stroke="#FFDA1A" fill="#1AB8FF">
            <g id="Polecane-wydarzenia" transform="translate(-20.000000, 693.000000)">
                <g id="EVENTY">
                    <g id="4" transform="translate(90.000000, 556.000000)">
                        <path d="M39.6636858,283.865334 C40.0634754,283.865334 40.4281957,284.03016 40.6947221,284.293179 C40.9577415,284.556198 41.1225671,284.920919 41.1225671,285.324215 C41.1225671,285.727512 40.9577415,286.092232 40.6947221,286.355252 L40.6771874,286.369279 C40.414168,286.628792 40.0564615,286.783097 39.6636858,286.783097 C39.2603893,286.783097 38.8956689,286.621778 38.6291426,286.355252 C38.3661231,286.092232 38.2048045,285.727512 38.2048045,285.324215 C38.2048045,284.920919 38.3661231,284.556198 38.6291426,284.293179 C38.8956689,284.03016 39.2603893,283.865334 39.6636858,283.865334 Z M44.071892,274.659653 L44.071892,274.61757 C44.071892,274.477293 43.9596703,274.365071 43.8193933,274.365071 L35.518499,274.365071 C35.1011748,274.365071 34.7224268,274.53691 34.4453796,274.810451 C34.1718394,275.087498 34,275.466246 34,275.880063 L34,286.485008 C34,286.902332 34.1718394,287.28108 34.4453796,287.55462 C34.7224268,287.828161 35.1011748,288 35.518499,288 L43.8193933,288 C43.9596703,288 44.071892,287.887778 44.071892,287.747501 L44.071892,287.516044 L49.7636332,287.516044 C51.2996668,287.516044 52.6954235,286.891811 53.7054182,285.87831 C54.7154129,284.868315 55.3431527,283.472558 55.3431527,281.936525 L55.3431527,276.956689 C55.3431527,276.539365 55.1748203,276.164124 54.90128,275.887077 L54.8977731,275.887077 L54.8977731,275.88357 C54.6242329,275.61003 54.2419779,275.43819 53.8246537,275.43819 L49.6689462,275.43819 L50.4615115,269.725408 C50.4895669,269.500964 50.4755392,269.287042 50.4159214,269.08364 C50.3563037,268.880238 50.2510959,268.690864 50.1002981,268.522532 C49.9530072,268.350693 49.7776609,268.220936 49.5882869,268.133263 C49.391899,268.04559 49.1814834,268 48.9570402,268 L48.4520428,268 C48.1644748,268 47.8944415,268.077152 47.6664913,268.217429 C47.4315273,268.357706 47.2386463,268.561108 47.1088901,268.817114 L44.071892,274.659653 Z M47.5542697,269.052078 C47.6454498,268.876732 47.7716991,268.739961 47.9260039,268.648781 C48.0768017,268.554094 48.2556549,268.504997 48.4520428,268.504997 L48.9570402,268.504997 C49.1113449,268.504997 49.251622,268.53656 49.3778713,268.592671 L49.3813782,268.592671 C49.5041206,268.652288 49.6198492,268.736454 49.7215501,268.852183 C49.819744,268.967912 49.8898825,269.090654 49.9319656,269.227424 C49.9705418,269.360687 49.9810626,269.504471 49.960021,269.655269 L49.1323865,275.65562 C49.1113449,275.795897 49.2060319,275.925653 49.346309,275.943188 L49.3813782,275.943188 L53.8246537,275.943188 C54.1052078,275.943188 54.3577065,276.058916 54.5400666,276.241277 C54.7259337,276.423637 54.8381554,276.676135 54.8381554,276.956689 L54.8381554,281.936525 C54.8381554,283.332281 54.2665264,284.601789 53.3477117,285.520603 C52.4288971,286.439418 51.1593898,287.011047 49.7636332,287.011047 L44.071892,287.011047 L44.071892,275.753814 L47.5542697,269.052078 Z M43.5668946,274.866561 L35.518499,274.866561 C35.2379449,274.866561 34.9854463,274.978783 34.8030861,275.16465 C34.6207259,275.34701 34.5049974,275.599509 34.5049974,275.880063 L34.5049974,286.485008 C34.5049974,286.765562 34.6207259,287.018061 34.8030861,287.200421 C34.9854463,287.386288 35.2379449,287.49851 35.518499,287.49851 L43.5668946,287.49851 L43.5668946,274.866561 Z M40.3370156,284.650885 C40.1651762,284.479046 39.9267052,284.370331 39.6636858,284.370331 C39.3971594,284.370331 39.1586884,284.479046 38.986849,284.650885 C38.8150096,284.822725 38.7098019,285.061196 38.7098019,285.324215 C38.7098019,285.587235 38.8150096,285.825706 38.986849,285.997545 C39.1586884,286.169385 39.3971594,286.278099 39.6636858,286.278099 C39.9196914,286.278099 40.1546554,286.176398 40.3264948,286.011573 L40.3370156,285.997545 C40.508855,285.825706 40.6140628,285.587235 40.6140628,285.324215 C40.6140628,285.061196 40.508855,284.822725 40.3370156,284.650885 L40.3370156,284.650885 Z" id="Fill-596"></path>
                    </g>
                </g>
            </g>
        </g>
    </g>
</svg>