<?xml version="1.0" encoding="UTF-8"?>
<svg width="24px" height="22px" viewBox="0 0 24 22" version="1.1" xmlns="http://www.w3.org/2000/svg" xmlns:xlink="http://www.w3.org/1999/xlink">
    <!-- Generator: Sketch 42 (36781) - http://www.bohemiancoding.com/sketch -->
    <title>Fill 1067</title>
    <desc>Created with Sketch.</desc>
    <defs></defs>
    <g id="GRAFIKA" stroke="none" stroke-width="1" fill="none" fill-rule="evenodd">
        <g id="strona-główna---dla-rodziny" transform="translate(-430.000000, -1356.000000)" stroke-width="0.5" stroke="#FFDA1A" fill="#FFDA1A">
            <g id="Polecane-wydarzenia" transform="translate(-20.000000, 693.000000)">
                <g id="EVENTY">
                    <g id="5-HOVER" transform="translate(420.000000, 556.000000)">
                        <path d="M31.4923809,114.695457 L52.7810173,114.695457 L52.7810173,113.652567 L42.1366991,108.52018 L31.4923809,113.652567 L31.4923809,114.695457 Z M31.2461905,125.989445 L32.6891401,125.989445 L32.6891401,116.993235 L32.2685647,116.993235 C32.1317923,116.993235 32.0223743,116.883817 32.0223743,116.747044 L32.0223743,115.191257 L31.2461905,115.191257 C31.109418,115.191257 31,115.07842 31,114.945067 L31,113.495279 C31,113.406376 31.0512897,113.317474 31.1367725,113.276443 L42.0307004,108.024379 C42.0956674,107.993606 42.1743115,107.990186 42.2461171,108.024379 L53.1195292,113.269604 C53.2118506,113.303797 53.2768175,113.392699 53.2768175,113.495279 L53.2768175,114.945067 C53.2768175,115.07842 53.1639802,115.191257 53.0272077,115.191257 L52.2510239,115.191257 L52.2510239,116.747044 C52.2510239,116.883817 52.1416059,116.993235 52.0082528,116.993235 L51.5876774,116.993235 L51.5876774,125.989445 L53.0272077,125.989445 C53.1639802,125.989445 53.2768175,126.102282 53.2768175,126.239054 L53.2768175,127.75381 C53.2768175,127.890582 53.1639802,128 53.0272077,128 L31.2461905,128 C31.109418,128 31,127.890582 31,127.75381 L31,126.239054 C31,126.102282 31.109418,125.989445 31.2461905,125.989445 Z M37.5992721,115.191257 L37.5992721,116.747044 C37.5992721,116.883817 37.4898541,116.993235 37.356501,116.993235 L36.9359256,116.993235 L36.9359256,125.989445 L40.0133064,125.989445 L40.0133064,116.993235 L39.592731,116.993235 C39.4593778,116.993235 39.3499598,116.883817 39.3499598,116.747044 L39.3499598,115.191257 L37.5992721,115.191257 Z M44.9234384,115.191257 L44.9234384,116.747044 C44.9234384,116.883817 44.8174397,116.993235 44.6806672,116.993235 L44.2600918,116.993235 L44.2600918,125.989445 L47.3374726,125.989445 L47.3374726,116.993235 L46.9168972,116.993235 C46.7835441,116.993235 46.6775454,116.883817 46.6775454,116.747044 L46.6775454,115.191257 L44.9234384,115.191257 Z M47.1630877,116.500854 L51.7654816,116.500854 L51.7654816,115.187838 L47.1630877,115.187838 L47.1630877,116.500854 Z M39.8355021,116.500854 L44.4378961,116.500854 L44.4378961,115.187838 L39.8355021,115.187838 L39.8355021,116.500854 Z M32.5079166,116.500854 L37.1103105,116.500854 L37.1103105,115.187838 L32.5079166,115.187838 L32.5079166,116.500854 Z M33.181521,125.989445 L36.4435447,125.989445 L36.4435447,116.989815 L33.181521,116.989815 L33.181521,125.989445 Z M40.5056873,125.989445 L43.7677109,125.989445 L43.7677109,116.989815 L40.5056873,116.989815 L40.5056873,125.989445 Z M47.8332728,125.989445 L51.0952965,125.989445 L51.0952965,116.989815 L47.8332728,116.989815 L47.8332728,125.989445 Z M31.4923809,127.507619 L52.7844366,127.507619 L52.7844366,126.481825 L31.4923809,126.481825 L31.4923809,127.507619 Z" id="Fill-1067"></path>
                    </g>
                </g>
            </g>
        </g>
    </g>
</svg>