<?xml version="1.0" encoding="UTF-8"?>
<svg width="18px" height="22px" viewBox="0 0 18 22" version="1.1" xmlns="http://www.w3.org/2000/svg" xmlns:xlink="http://www.w3.org/1999/xlink">
    <!-- Generator: Sketch 42 (36781) - http://www.bohemiancoding.com/sketch -->
    <title>pin1</title>
    <desc>Created with Sketch.</desc>
    <defs></defs>
    <g id="GRAFIKA" stroke="none" stroke-width="1" fill="none" fill-rule="evenodd">
        <g id="strona-główna-" transform="translate(-403.000000, -2173.000000)" stroke="#FFDA1A" fill="#FFDA1A">
            <g id="stopka" transform="translate(-5.000000, 1958.000000)">
                <path d="M416.783518,235.920989 C416.154213,235.186297 415.452642,234.409451 414.726983,233.605505 C413.194368,231.907283 411.565399,230.106686 410.448306,228.522883 L410.448306,228.519872 L410.448306,228.522883 C409.972563,227.836368 409.61124,227.104687 409.367346,226.336874 C409.126463,225.575082 409,224.774148 409,223.949125 C409,221.754083 409.891266,219.766801 411.327528,218.327528 C412.766801,216.888255 414.754083,216 416.949125,216 C419.144168,216 421.131449,216.888255 422.570722,218.327528 C424.006985,219.766801 424.89825,221.754083 424.89825,223.949125 C424.89825,224.771137 424.771787,225.581105 424.527893,226.348918 C424.287011,227.116731 423.922676,227.851423 423.449944,228.522883 C422.332851,230.106686 420.703882,231.910294 419.171267,233.608516 C418.445608,234.409451 417.744038,235.189308 417.114732,235.924 C417.036445,236.014331 416.900949,236.026375 416.807607,235.948088 C416.798573,235.939055 416.78954,235.930022 416.783518,235.920989 Z M416.949125,220.426217 C415.976562,220.426217 415.09734,220.820663 414.459001,221.45599 C413.820663,222.094329 413.426217,222.976562 413.426217,223.949125 C413.426217,224.918677 413.820663,225.80091 414.459001,226.439249 C415.09734,227.077588 415.976562,227.469022 416.949125,227.469022 C417.921688,227.469022 418.803921,227.077588 419.439249,226.439249 C420.077588,225.80091 420.472033,224.921688 420.472033,223.949125 L420.472033,223.946114 C420.472033,222.973551 420.077588,222.094329 419.439249,221.45599 C418.803921,220.820663 417.921688,220.426217 416.949125,220.426217 Z M414.151876,221.148865 C413.43525,221.865491 412.992629,222.85612 412.992629,223.949125 C412.992629,225.04213 413.438261,226.029748 414.151876,226.746374 C414.868502,227.459989 415.85612,227.905621 416.949125,227.905621 C418.04213,227.905621 419.032759,227.459989 419.746374,226.746374 C420.463,226.029748 420.905621,225.04213 420.905621,223.949125 L420.905621,223.946114 C420.905621,222.85612 420.463,221.865491 419.746374,221.148865 C419.032759,220.43525 418.04213,219.992629 416.949125,219.992629 C415.85612,219.992629 414.868502,220.43525 414.151876,221.148865 Z M415.046153,233.316446 C415.720624,234.060171 416.374018,234.78583 416.949125,235.451268 C417.524232,234.78583 418.177626,234.060171 418.852097,233.319457 C420.372669,231.633279 421.989593,229.841715 423.094642,228.272967 C423.543286,227.63764 423.883532,226.945102 424.115382,226.216432 C424.34422,225.487763 424.464661,224.72296 424.464661,223.949125 C424.464661,221.871513 423.621572,219.992629 422.263597,218.634653 C420.90261,217.276678 419.023726,216.433589 416.949125,216.433589 C414.874524,216.433589 412.99564,217.276678 411.634653,218.634653 C410.276678,219.992629 409.433589,221.871513 409.433589,223.949125 C409.433589,224.731993 409.551019,225.487763 409.779857,226.207399 C410.008696,226.933058 410.354964,227.625595 410.803608,228.272967 C411.908657,229.841715 413.525581,231.630268 415.046153,233.316446 L415.046153,233.316446 Z" id="pin1"></path>
            </g>
        </g>
    </g>
</svg>