<?xml version="1.0" encoding="UTF-8"?>
<svg width="41px" height="30px" viewBox="0 0 41 30" version="1.1" xmlns="http://www.w3.org/2000/svg" xmlns:xlink="http://www.w3.org/1999/xlink">
    <!-- Generator: Sketch 42 (36781) - http://www.bohemiancoding.com/sketch -->
    <title>„”</title>
    <desc>Created with Sketch.</desc>
    <defs></defs>
    <g id="GRAFIKA" stroke="none" stroke-width="1" fill="none" fill-rule="evenodd">
        <g id="podstrona-v2" transform="translate(-1207.000000, -761.000000)" fill="#FFDA1A">
            <g id="czy-wiesz-że" transform="translate(1075.000000, 529.000000)">
                <path d="M157.462633,256.395018 C161.128132,255.291809 163.56583,253.26336 164.775801,250.309609 C165.274024,249.135225 165.523132,247.711752 165.523132,246.039146 L157.19573,246.039146 L157.19573,232 L172.355872,232 L172.355872,243.263345 C172.355872,248.352339 171.119229,252.507101 168.645907,255.727758 C166.172585,258.948415 162.444865,261.039141 157.462633,262 L157.462633,256.395018 Z M132.266904,256.395018 C135.861228,255.256222 138.281133,253.298946 139.52669,250.523132 C140.20285,249.06405 140.487545,247.569403 140.380783,246.039146 L132,246.039146 L132,232 L147.213523,232 L147.213523,243.263345 C147.213523,248.494688 145.941294,252.693934 143.396797,255.86121 C140.8523,259.028486 137.142373,261.074728 132.266904,262 L132.266904,256.395018 Z" id="„”"></path>
            </g>
        </g>
    </g>
</svg>