<?xml version="1.0" encoding="UTF-8"?>
<svg width="16px" height="16px" viewBox="0 0 16 16" version="1.1" xmlns="http://www.w3.org/2000/svg" xmlns:xlink="http://www.w3.org/1999/xlink">
    <!-- Generator: Sketch 42 (36781) - http://www.bohemiancoding.com/sketch -->
    <title>Shape</title>
    <desc>Created with Sketch.</desc>
    <defs></defs>
    <g id="GRAFIKA" stroke="none" stroke-width="1" fill="none" fill-rule="evenodd">
        <g id="strona-główna--po-scrollu" transform="translate(-1374.000000, -23.000000)" fill="#2D5898">
            <g id="navi-">
                <g id="search" transform="translate(1374.194805, 23.000000)">
                    <path d="M10.9971899,9.77777778 L10.2933698,9.77777778 L10.0294372,9.51111111 C10.9092124,8.53333333 11.4370775,7.2 11.4370775,5.77777778 C11.4370775,2.57777778 8.88572948,0 5.71853877,0 C2.55134807,0 0,2.57777778 0,5.77777778 C0,8.97777778 2.55134807,11.5555556 5.71853877,11.5555556 C7.12617908,11.5555556 8.44584188,11.0222222 9.41359459,10.1333333 L9.67752715,10.4 L9.67752715,11.1111111 L14.0764031,15.5555556 L15.3960659,14.2222222 L10.9971899,9.77777778 L10.9971899,9.77777778 Z M5.71853877,9.77777778 C3.51910078,9.77777778 1.75955039,8 1.75955039,5.77777778 C1.75955039,3.55555556 3.51910078,1.77777778 5.71853877,1.77777778 C7.91797676,1.77777778 9.67752715,3.55555556 9.67752715,5.77777778 C9.67752715,8 7.91797676,9.77777778 5.71853877,9.77777778 L5.71853877,9.77777778 Z" id="Shape"></path>
                </g>
            </g>
        </g>
    </g>
</svg>