<?xml version="1.0" encoding="UTF-8"?>
<svg width="17px" height="22px" viewBox="0 0 17 22" version="1.1" xmlns="http://www.w3.org/2000/svg" xmlns:xlink="http://www.w3.org/1999/xlink">
    <!-- Generator: Sketch 42 (36781) - http://www.bohemiancoding.com/sketch -->
    <title>tel1</title>
    <desc>Created with Sketch.</desc>
    <defs></defs>
    <g id="GRAFIKA" stroke="none" stroke-width="1" fill="none" fill-rule="evenodd">
        <g id="strona-główna-" transform="translate(-403.000000, -2232.000000)" stroke="#FFDA1A" fill="#FFDA1A">
            <g id="stopka" transform="translate(-5.000000, 1958.000000)">
                <path d="M412.501863,287.625155 L409.048738,292.000403 C408.971357,292.100354 408.987478,292.245443 409.087428,292.326048 L411.721605,294.43468 C412.272945,294.876396 412.953252,295.053727 413.604542,294.986019 C414.259056,294.918311 414.887776,294.602338 415.335941,294.054223 C417.099582,291.897229 418.698789,289.579024 420.104543,287.144748 C421.507073,284.713696 422.71615,282.169797 423.702758,279.561414 C423.954246,278.900451 423.912331,278.197574 423.644722,277.597872 C423.377113,276.998169 422.883809,276.498417 422.222847,276.240481 L419.079245,275.015282 C418.95995,274.970143 418.824533,275.028179 418.779394,275.147475 L418.779394,275.153923 L416.712677,280.335223 C416.667539,280.454519 416.725574,280.589936 416.84487,280.638299 L418.605287,281.325055 C418.012033,282.605065 417.344622,283.885075 416.625624,285.136067 L416.619175,285.148964 C415.900177,286.393508 415.126368,287.60581 414.313868,288.756851 L412.840405,287.576792 C412.740455,287.496187 412.592141,287.512308 412.51476,287.612258 L412.501863,287.625155 Z M409.558163,292.106802 L412.730782,288.086216 L414.213917,289.272725 L414.22359,289.282397 C414.329989,289.356554 414.475078,289.333984 414.549235,289.227586 C415.41977,288.005611 416.251616,286.712704 417.018977,285.381107 L417.025425,285.36821 C417.796011,284.036613 418.502112,282.666325 419.127608,281.296037 L419.134057,281.279916 C419.18242,281.16062 419.12116,281.028428 419.001864,280.980065 L417.231775,280.290084 L419.127608,275.531155 L422.058412,276.672524 C422.596855,276.882098 423.003105,277.291572 423.222351,277.784876 C423.441597,278.278179 423.473839,278.855312 423.270714,279.396979 C422.290555,281.986017 421.09115,284.507347 419.701517,286.912605 C418.311884,289.321088 416.728798,291.616723 414.97483,293.76082 C414.60727,294.208985 414.094622,294.470146 413.559403,294.524957 C413.020961,294.582993 412.463173,294.43468 412.011784,294.073568 L409.558163,292.106802 Z M419.127608,281.296037 L419.130833,281.292813 L419.127608,281.296037 L419.127608,281.296037 Z" id="tel1"></path>
            </g>
        </g>
    </g>
</svg>